PathFileType	4	(X/Y/Z)	walk-thru1-5-TP.trc
DataRate	CameraRate	NumFrames	NumMarkers	Units	OrigDataRate	OrigDataStartFrame	OrigNumFrames
120.00	120.00	       4	60	mm	120.00	398	       454
Frame#	Time	Top.Head			Front.Head			Rear.Head			Jaw			C7			R.Clavicle			L.Clavicle			R.Shoulder			L.Shoulder			R.Scapula			L.Scapula			R.Scap.Inf			R.Biceps.Lateral			R.Elbow			R.Elbow.Medial			R.Forearm			R.Ulna			R.Radius			R.Wrist			R.Thumb.M1			R.Thumb.M2			R.Thumb.M3			R.Finger3.M1			R.Finger3.M2			R.Finger3.M3			L.Biceps.Lateral			L.Elbow			L.Elbow.Medial			L.Forearm			L.Ulna			L.Radius			L.Wrist			L.Thumb.M1			L.Thumb.M2			L.Thumb.M3			L.Finger3.M1			L.Finger3.M2			L.Finger3.M3			V.Sacral			R.ASIS			L.ASIS			R.Thigh			R.Thigh.Front			R.Knee			R.Knee.Medial			R.Shank			R.Ankle			R.Ankle.Medial			R.Heel			R.Toe			R.MedFoot			L.Thigh			L.Knee			L.Knee.Medial			L.Shank			L.Ankle			L.Ankle.Medial			L.Heel			L.Toe			L.MedFoot			V_mid_ASIS			V_R_Knee_JC			V_L_Knee_JC			V_R_Elbow_JC			V_L_Elbow_JC			V_R_Ankle_JC			V_L_Ankle_JC			V_R_Wrist_JC			V_L_Wrist_JC			V_R_ScaTrpz_1stMC_JC			V_R_1stMC_1stPP_JC			V_R_1stPP_1stDP_JC			V_R_LunCap_3rdMC_JC			V_R_3rdMC_3rdPP_JC			V_R_3rdPP_3rdMP_JC			V_R_3rdMP_3rdDP_JC			V_L_ScaTrpz_1stMC_JC			V_L_1stMC_1stPP_JC			V_L_1stPP_1stDP_JC			V_L_LunCap_3rdMC_JC			V_L_3rdMC_3rdPP_JC			V_L_3rdPP_3rdMP_JC			V_L_3rdMP_3rdPP_JC			V_ROOT_JC			V_R_Hip_JC			V_L_Hip_JC			V_R_GlenHum_JC			V_L_GlenHum_JC			V_ForeHead_Ctr			V_Vertex			V_Sagit_Lambdoid_Suture			V_R_FrontoTemp			V_L_FrontoTemporal			V_R_ParietalOccip			V_L_ParietalOcciptal			V_R_Temporal			V_L_Temporal			V_mid_FrontRearHead			V_mid_RLGlenHumCtrs			V_C7_vert			V_C1_vert			V_Mid_Hip			
		X1	Y1	Z1	X2	Y2	Z2	X3	Y3	Z3	X4	Y4	Z4	X5	Y5	Z5	X6	Y6	Z6	X7	Y7	Z7	X8	Y8	Z8	X9	Y9	Z9	X10	Y10	Z10	X11	Y11	Z11	X12	Y12	Z12	X13	Y13	Z13	X14	Y14	Z14	X15	Y15	Z15	X16	Y16	Z16	X17	Y17	Z17	X18	Y18	Z18	X19	Y19	Z19	X20	Y20	Z20	X21	Y21	Z21	X22	Y22	Z22	X23	Y23	Z23	X24	Y24	Z24	X25	Y25	Z25	X26	Y26	Z26	X27	Y27	Z27	X28	Y28	Z28	X29	Y29	Z29	X30	Y30	Z30	X31	Y31	Z31	X32	Y32	Z32	X33	Y33	Z33	X34	Y34	Z34	X35	Y35	Z35	X36	Y36	Z36	X37	Y37	Z37	X38	Y38	Z38	X39	Y39	Z39	X40	Y40	Z40	X41	Y41	Z41	X42	Y42	Z42	X43	Y43	Z43	X44	Y44	Z44	X45	Y45	Z45	X46	Y46	Z46	X47	Y47	Z47	X48	Y48	Z48	X49	Y49	Z49	X50	Y50	Z50	X51	Y51	Z51	X52	Y52	Z52	X53	Y53	Z53	X54	Y54	Z54	X55	Y55	Z55	X56	Y56	Z56	X57	Y57	Z57	X58	Y58	Z58	X59	Y59	Z59	X60	Y60	Z60	

398	3.308	-664.94757	-43.65293	1565.08240	-765.44763	-34.80621	1464.97339	-551.73059	-40.40232	1485.38354	-734.07373	-18.57541	1324.57373	-534.18433	-22.83755	1376.79028	-610.44794	92.71996	1286.20801	-639.14380	-121.45762	1292.51379	-555.69928	166.77022	1284.85999	-594.44061	-216.30956	1293.44031	-480.12399	60.13825	1302.61133	-492.35947	-122.29005	1300.41113	-432.92914	40.88593	1221.15759	-570.72217	220.24411	1142.18567	-535.85291	241.26642	982.33691	-503.03046	171.66508	967.30066	-613.61389	230.33704	907.50928	-585.79285	255.38628	821.30841	-650.66370	208.76842	777.03479	-646.62958	248.68657	743.89880	-678.33167	211.38220	726.87439	-690.61603	195.43921	690.11444	-695.32251	187.51114	648.60822	-667.59320	265.42178	669.19617	-669.77405	240.78403	618.93054	-655.08685	213.20874	590.03906	-579.45862	-277.00018	1147.94434	-531.51630	-288.40939	1003.93347	-499.32318	-213.87991	998.87848	-617.25897	-258.22162	944.03448	-616.74542	-289.44583	852.45032	-664.08154	-224.71844	818.26495	-681.91083	-269.64856	792.72345	-700.06219	-224.67111	786.20557	-713.47900	-201.27786	750.77460	-721.33850	-195.11322	697.40997	-720.43152	-266.09189	713.08582	-726.81854	-253.21416	673.37689	-715.91870	-222.98474	638.27496	-416.49136	-24.18374	913.40631	-603.66663	138.29877	970.12958	-619.05316	-181.08916	955.90009	-628.93829	184.46681	583.64966	-709.55151	125.25883	490.08368	-650.05725	159.12569	435.68015	-673.18140	46.72881	431.00790	-554.65228	102.47830	288.47095	-365.04080	100.63039	164.76161	-401.85031	16.40153	163.74065	-311.48035	37.02959	177.95497	-450.76434	94.85365	53.98128	-440.08734	48.80992	103.31243	-622.34473	-190.19333	578.48999	-650.87659	-151.68222	443.37762	-665.25812	-29.99393	435.21359	-648.14801	-81.96056	249.81824	-572.94025	-94.53973	62.61111	-583.77966	-5.54344	84.43584	-513.66156	-46.74011	41.61370	-719.28070	-54.36288	39.10101	-660.39716	-23.31034	61.82198																																																																																																																															
399	3.317	-671.81586	-43.36620	1565.61157	-771.61682	-34.04939	1464.32947	-557.43402	-41.59567	1485.69690	-739.41406	-18.69220	1324.09937	-540.39801	-23.16977	1377.58752	-615.08112	92.77697	1286.26038	-644.97479	-121.02338	1292.39868	-559.66583	165.54669	1284.46362	-601.08679	-216.39584	1293.79565	-484.79407	59.74990	1302.82861	-498.17438	-122.29751	1300.77234	-438.46188	40.84578	1221.63892	-575.55774	219.48383	1142.29736	-539.00635	241.53983	982.41132	-506.16522	172.32620	968.10413	-614.59949	229.96260	906.98645	-586.83411	255.20331	821.21362	-651.33704	209.53383	775.88593	-646.91309	248.86293	743.43207	-678.32062	211.82762	726.16870	-690.09601	196.09084	689.18445	-694.94586	188.69586	647.48621	-666.96100	265.24503	668.08893	-668.78687	240.64369	617.41949	-653.34326	212.85654	589.46851	-585.17950	-278.47116	1148.22656	-537.05817	-288.04572	1004.43243	-505.84958	-213.05109	999.04419	-622.86774	-257.56274	945.00256	-623.03912	-289.42258	852.27777	-670.68433	-224.77902	818.82123	-688.18671	-270.19916	793.70624	-706.24176	-226.55435	787.10614	-718.55756	-202.65799	750.58673	-726.94543	-195.80623	697.59064	-726.68579	-266.90298	713.47253	-732.37549	-254.27992	674.87653	-722.39917	-224.59729	639.15057	-420.36633	-23.96036	913.71899	-609.16400	140.55925	970.56366	-624.51825	-182.13728	955.84723	-638.47266	183.43184	584.32837	-719.63232	124.79813	491.74863	-658.40198	158.83827	437.10699	-682.15790	47.24383	432.16006	-566.95081	101.92884	288.53244	-377.59634	100.52695	162.31120	-414.85406	16.82077	162.18060	-324.85318	37.23816	174.29262	-467.22354	96.22749	54.57909	-453.88623	49.34628	103.12910	-624.00116	-190.41183	578.61719	-651.59106	-151.72997	443.26755	-665.94269	-30.09257	434.85620	-648.06219	-81.75234	249.11943	-573.00519	-95.13898	63.12095	-583.74493	-5.41611	84.40224	-513.45300	-46.47261	41.62233	-719.30084	-54.44079	39.06516	-660.43292	-23.78314	61.98619																																																																																																																															
400	3.325	-677.16724	-43.23310	1565.84351	-777.01068	-34.47688	1464.81323	-564.31470	-41.56732	1484.46570	-744.45062	-17.70039	1324.49817	-546.74341	-23.92902	1376.80530	-619.32855	92.75293	1286.43884	-650.62537	-121.00336	1292.39050	-565.15247	165.26506	1285.04077	-606.68103	-218.10562	1294.31079	-490.03088	58.17124	1303.29785	-503.79062	-122.20984	1301.15723	-442.53494	39.18583	1222.31616	-579.67755	219.12016	1142.81519	-541.72736	241.23631	982.58752	-508.80646	171.29784	969.32990	-617.09442	230.79207	905.89368	-587.84717	255.36513	821.00250	-654.60236	211.06783	775.78528	-646.98633	249.64476	742.02893	-678.84882	211.91249	725.36035	-690.00525	197.38342	687.87714	-695.00928	188.88925	646.01691	-666.41461	265.15643	667.33777	-668.44989	239.95000	616.28735	-652.23059	211.68617	588.93481	-590.90942	-276.89249	1148.97559	-542.90680	-288.22946	1004.30005	-511.27908	-213.00336	999.09076	-627.74634	-258.20541	945.37958	-629.39124	-289.95197	853.11914	-675.79004	-225.54579	818.93243	-693.52869	-270.38959	794.38068	-710.80261	-226.05867	787.11560	-724.39551	-202.37036	751.16852	-732.76996	-197.20377	697.98230	-732.76678	-267.56119	714.19244	-739.30792	-255.81284	675.27094	-729.44543	-225.31995	639.29681	-424.98779	-23.85325	914.68243	-614.67877	139.71704	970.90234	-629.94122	-182.89304	955.96405	-642.69824	185.21071	586.12262	-727.67859	124.11105	493.53992	-669.39215	158.42299	438.09879	-689.32190	46.08907	433.16922	-579.11890	102.18328	288.51529	-391.03943	100.51938	160.54572	-428.54160	16.78949	160.19762	-337.31976	36.67065	169.71469	-484.63077	96.46078	55.40796	-469.46085	49.93774	103.19115	-625.46484	-190.66475	578.58466	-652.08490	-152.47354	443.05222	-666.65582	-30.26246	434.11572	-648.60431	-82.07561	249.66531	-573.01953	-94.34106	62.59528	-583.79462	-5.86338	84.23542	-513.48987	-46.43470	41.38029	-719.27466	-54.56485	39.00080	-660.75720	-23.46280	62.01466																																																																																																																															
401	3.333	-683.14404	-44.62786	1565.46265	-782.80554	-35.35195	1464.35046	-568.92426	-42.42198	1485.30054	-749.59717	-18.74047	1324.22034	-552.67834	-23.97756	1377.47949	-624.61566	92.77164	1286.23315	-653.67493	-121.29330	1292.01392	-570.30902	165.75276	1284.62805	-611.26031	-217.10034	1294.72668	-494.94626	58.70333	1303.90649	-509.34940	-124.16711	1301.29651	-448.09543	38.38007	1222.89575	-583.20917	218.64990	1142.57422	-545.00726	240.64590	982.87927	-513.79718	170.29108	969.10089	-619.43127	230.06511	905.77679	-588.69604	255.04233	820.92438	-655.21411	211.44832	775.44983	-647.19409	250.20323	740.95465	-680.54285	213.67191	722.78021	-690.59106	197.41904	687.24677	-695.50610	188.74203	645.16058	-665.28107	265.17273	665.57520	-668.30096	239.27040	615.65015	-651.05713	211.37019	588.38037	-597.49365	-278.58295	1148.51965	-547.35040	-289.49954	1004.42175	-515.74469	-214.51205	999.23456	-632.84711	-258.95544	945.28723	-634.26953	-291.29404	853.02051	-680.92584	-226.45978	819.10059	-699.29431	-271.52570	794.23456	-716.93109	-226.03029	787.74329	-729.48462	-202.78349	751.48730	-738.26660	-198.67133	698.55933	-737.60522	-268.48257	714.70740	-744.57874	-255.74699	676.12897	-735.13531	-227.56602	639.78143	-428.74133	-23.47029	915.00732	-617.46332	137.42841	970.72418	-635.47064	-184.38167	956.18915	-653.45557	182.67908	585.99603	-736.68317	124.10657	495.27469	-678.56659	158.14186	440.28513	-697.84161	47.32513	434.99237	-590.14154	102.46584	289.06790	-403.99396	101.77787	157.24265	-442.59021	17.19254	157.37791	-350.15414	37.56669	164.91235	-502.22415	97.59596	56.05763	-484.96472	51.15286	102.12634	-627.36536	-190.37894	578.43628	-652.51556	-152.65144	443.17804	-663.46674	-28.49285	432.86548	-648.60681	-82.31389	249.52740	-572.88934	-94.43225	62.58286	-583.61377	-6.11198	84.11594	-513.60260	-46.27378	41.48169	-719.24683	-54.48312	38.78168	-660.74518	-23.37450	61.94126																																																																																																																															
